<mxfile host="65bd71144e">
    <diagram id="gWXGfiudFhvckFrV3_yu" name="Page-1">
        <mxGraphModel dx="1072" dy="563" grid="1" gridSize="10" guides="1" tooltips="1" connect="1" arrows="1" fold="1" page="1" pageScale="1" pageWidth="850" pageHeight="1100" math="0" shadow="0">
            <root>
                <mxCell id="0"/>
                <mxCell id="1" parent="0"/>
                <mxCell id="2" value="" style="rounded=0;whiteSpace=wrap;html=1;" parent="1" vertex="1">
                    <mxGeometry x="65" y="80" width="720" height="410" as="geometry"/>
                </mxCell>
                <mxCell id="4" value="" style="html=1;points=[];perimeter=orthogonalPerimeter;fillColor=strokeColor;" parent="1" vertex="1">
                    <mxGeometry x="423" y="80" width="5" height="410" as="geometry"/>
                </mxCell>
                <mxCell id="6" value="Inloggen" style="text;html=1;align=center;verticalAlign=middle;whiteSpace=wrap;rounded=0;" parent="1" vertex="1">
                    <mxGeometry x="210" y="170" width="60" height="30" as="geometry"/>
                </mxCell>
                <mxCell id="8" value="Hallo Welcome!" style="text;html=1;align=center;verticalAlign=middle;whiteSpace=wrap;rounded=0;" parent="1" vertex="1">
                    <mxGeometry x="595" y="180" width="60" height="30" as="geometry"/>
                </mxCell>
                <mxCell id="9" value="Maak account aan&amp;nbsp;" style="text;html=1;align=center;verticalAlign=middle;whiteSpace=wrap;rounded=0;" parent="1" vertex="1">
                    <mxGeometry x="560" y="240" width="130" height="30" as="geometry"/>
                </mxCell>
                <mxCell id="10" value="" style="rounded=1;whiteSpace=wrap;html=1;" parent="1" vertex="1">
                    <mxGeometry x="587.5" y="320" width="75" height="20" as="geometry"/>
                </mxCell>
                <mxCell id="11" value="REGISTEREN" style="text;html=1;align=center;verticalAlign=middle;whiteSpace=wrap;rounded=0;" parent="1" vertex="1">
                    <mxGeometry x="590" y="320" width="70" height="15" as="geometry"/>
                </mxCell>
                <mxCell id="12" value="" style="rounded=1;whiteSpace=wrap;html=1;arcSize=50;" parent="1" vertex="1">
                    <mxGeometry x="202.5" y="322.5" width="75" height="20" as="geometry"/>
                </mxCell>
                <mxCell id="13" value="inloggen" style="text;html=1;align=center;verticalAlign=middle;whiteSpace=wrap;rounded=0;" parent="1" vertex="1">
                    <mxGeometry x="210" y="322.5" width="60" height="15" as="geometry"/>
                </mxCell>
                <mxCell id="15" value="E-mailadres" style="rounded=1;whiteSpace=wrap;html=1;" parent="1" vertex="1">
                    <mxGeometry x="150" y="210" width="200" height="20" as="geometry"/>
                </mxCell>
                <mxCell id="16" value="Wachtwoord" style="rounded=1;whiteSpace=wrap;html=1;" parent="1" vertex="1">
                    <mxGeometry x="150" y="250" width="200" height="20" as="geometry"/>
                </mxCell>
                <mxCell id="17" value="" style="rounded=0;whiteSpace=wrap;html=1;" vertex="1" parent="1">
                    <mxGeometry x="120" y="510" width="550" height="410" as="geometry"/>
                </mxCell>
                <mxCell id="18" value="" style="html=1;points=[];perimeter=orthogonalPerimeter;fillColor=strokeColor;" vertex="1" parent="1">
                    <mxGeometry x="408" y="510" width="5" height="410" as="geometry"/>
                </mxCell>
                <mxCell id="19" value="Inloggen" style="text;html=1;align=center;verticalAlign=middle;whiteSpace=wrap;rounded=0;" vertex="1" parent="1">
                    <mxGeometry x="240" y="600" width="60" height="30" as="geometry"/>
                </mxCell>
                <mxCell id="24" value="" style="rounded=1;whiteSpace=wrap;html=1;arcSize=50;" vertex="1" parent="1">
                    <mxGeometry x="232.5" y="705" width="75" height="20" as="geometry"/>
                </mxCell>
                <mxCell id="25" value="inloggen" style="text;html=1;align=center;verticalAlign=middle;whiteSpace=wrap;rounded=0;" vertex="1" parent="1">
                    <mxGeometry x="240" y="707.5" width="60" height="15" as="geometry"/>
                </mxCell>
                <mxCell id="26" value="E-mailadres" style="rounded=1;whiteSpace=wrap;html=1;" vertex="1" parent="1">
                    <mxGeometry x="170" y="640" width="200" height="20" as="geometry"/>
                </mxCell>
                <mxCell id="27" value="Wachtwoord" style="rounded=1;whiteSpace=wrap;html=1;" vertex="1" parent="1">
                    <mxGeometry x="170" y="670" width="200" height="20" as="geometry"/>
                </mxCell>
                <mxCell id="35" value="tussenvoegsel" style="rounded=1;whiteSpace=wrap;html=1;" vertex="1" parent="1">
                    <mxGeometry x="440" y="670" width="200" height="20" as="geometry"/>
                </mxCell>
                <mxCell id="36" value="email" style="rounded=1;whiteSpace=wrap;html=1;" vertex="1" parent="1">
                    <mxGeometry x="440" y="700" width="200" height="20" as="geometry"/>
                </mxCell>
                <mxCell id="37" value="Wachtwoord" style="rounded=1;whiteSpace=wrap;html=1;" vertex="1" parent="1">
                    <mxGeometry x="440" y="732.5" width="200" height="20" as="geometry"/>
                </mxCell>
                <mxCell id="39" value="voornaam" style="rounded=1;whiteSpace=wrap;html=1;" vertex="1" parent="1">
                    <mxGeometry x="440" y="640" width="200" height="20" as="geometry"/>
                </mxCell>
                <mxCell id="40" value="Hallo Welcome!" style="text;html=1;align=center;verticalAlign=middle;whiteSpace=wrap;rounded=0;" vertex="1" parent="1">
                    <mxGeometry x="510" y="535" width="60" height="30" as="geometry"/>
                </mxCell>
                <mxCell id="41" value="Maak account aan&amp;nbsp;" style="text;html=1;align=center;verticalAlign=middle;whiteSpace=wrap;rounded=0;" vertex="1" parent="1">
                    <mxGeometry x="475" y="590" width="130" height="30" as="geometry"/>
                </mxCell>
            </root>
        </mxGraphModel>
    </diagram>
</mxfile>